<svg viewBox="0 -7 80 87" xmlns="http://www.w3.org/2000/svg">
<rect fill="#3a911a" height="10" width="10" x="0" y="0"/>
<rect fill="#4BA30B" height="10" width="10" x="0" y="10"/>
<rect fill="#3a911a" height="10" width="10" x="0" y="20"/>
<rect fill="#4BA30B" height="10" width="10" x="0" y="30"/>
<rect fill="#3a911a" height="10" width="10" x="0" y="40"/>
<rect fill="#4BA30B" height="10" width="10" x="0" y="50"/>
<rect fill="#3a911a" height="10" width="10" x="0" y="60"/>
<rect fill="#4BA30B" height="10" width="10" x="0" y="70"/>
<rect fill="#4BA30B" height="10" width="10" x="10" y="0"/>
<rect fill="#3a911a" height="10" width="10" x="10" y="10"/>
<rect fill="#4BA30B" height="10" width="10" x="10" y="20"/>
<rect fill="#3a911a" height="10" width="10" x="10" y="30"/>
<rect fill="#4BA30B" height="10" width="10" x="10" y="40"/>
<rect fill="#3a911a" height="10" width="10" x="10" y="50"/>
<rect fill="#4BA30B" height="10" width="10" x="10" y="60"/>
<rect fill="#3a911a" height="10" width="10" x="10" y="70"/>
<rect fill="#3a911a" height="10" width="10" x="20" y="0"/>
<rect fill="#4BA30B" height="10" width="10" x="20" y="10"/>
<rect fill="#3a911a" height="10" width="10" x="20" y="20"/>
<rect fill="#4BA30B" height="10" width="10" x="20" y="30"/>
<rect fill="#3a911a" height="10" width="10" x="20" y="40"/>
<rect fill="#4BA30B" height="10" width="10" x="20" y="50"/>
<rect fill="#3a911a" height="10" width="10" x="20" y="60"/>
<rect fill="#4BA30B" height="10" width="10" x="20" y="70"/>
<rect fill="#4BA30B" height="10" width="10" x="30" y="0"/>
<rect fill="#3a911a" height="10" width="10" x="30" y="10"/>
<rect fill="#4BA30B" height="10" width="10" x="30" y="20"/>
<rect fill="#3a911a" height="10" width="10" x="30" y="30"/>
<rect fill="#4BA30B" height="10" width="10" x="30" y="40"/>
<rect fill="#3a911a" height="10" width="10" x="30" y="50"/>
<rect fill="#4BA30B" height="10" width="10" x="30" y="60"/>
<rect fill="#3a911a" height="10" width="10" x="30" y="70"/>
<rect fill="#3a911a" height="10" width="10" x="40" y="0"/>
<rect fill="#4BA30B" height="10" width="10" x="40" y="10"/>
<rect fill="#3a911a" height="10" width="10" x="40" y="20"/>
<rect fill="#4BA30B" height="10" width="10" x="40" y="30"/>
<rect fill="#3a911a" height="10" width="10" x="40" y="40"/>
<rect fill="#4BA30B" height="10" width="10" x="40" y="50"/>
<rect fill="#3a911a" height="10" width="10" x="40" y="60"/>
<rect fill="#4BA30B" height="10" width="10" x="40" y="70"/>
<rect fill="#4BA30B" height="10" width="10" x="50" y="0"/>
<rect fill="#3a911a" height="10" width="10" x="50" y="10"/>
<rect fill="#4BA30B" height="10" width="10" x="50" y="20"/>
<rect fill="#3a911a" height="10" width="10" x="50" y="30"/>
<rect fill="#4BA30B" height="10" width="10" x="50" y="40"/>
<rect fill="#3a911a" height="10" width="10" x="50" y="50"/>
<rect fill="#4BA30B" height="10" width="10" x="50" y="60"/>
<rect fill="#3a911a" height="10" width="10" x="50" y="70"/>
<rect fill="#3a911a" height="10" width="10" x="60" y="0"/>
<rect fill="#4BA30B" height="10" width="10" x="60" y="10"/>
<rect fill="#3a911a" height="10" width="10" x="60" y="20"/>
<rect fill="#4BA30B" height="10" width="10" x="60" y="30"/>
<rect fill="#3a911a" height="10" width="10" x="60" y="40"/>
<rect fill="#4BA30B" height="10" width="10" x="60" y="50"/>
<rect fill="#3a911a" height="10" width="10" x="60" y="60"/>
<rect fill="#4BA30B" height="10" width="10" x="60" y="70"/>
<rect fill="#4BA30B" height="10" width="10" x="70" y="0"/>
<rect fill="#3a911a" height="10" width="10" x="70" y="10"/>
<rect fill="#4BA30B" height="10" width="10" x="70" y="20"/>
<rect fill="#3a911a" height="10" width="10" x="70" y="30"/>
<rect fill="#4BA30B" height="10" width="10" x="70" y="40"/>
<rect fill="#3a911a" height="10" width="10" x="70" y="50"/>
<rect fill="#4BA30B" height="10" width="10" x="70" y="60"/>
<rect fill="#3a911a" height="10" width="10" x="70" y="70"/>
<path d="M0,0 l80,0 M0,0 l0,80" fill="none" stroke="black" stroke-width="1"/>
<path d="M0,10 l80,0 M10,0 l0,80" fill="none" stroke="black" stroke-width="1"/>
<path d="M0,20 l80,0 M20,0 l0,80" fill="none" stroke="black" stroke-width="1"/>
<path d="M0,30 l80,0 M30,0 l0,80" fill="none" stroke="black" stroke-width="1"/>
<path d="M0,40 l80,0 M40,0 l0,80" fill="none" stroke="black" stroke-width="1"/>
<path d="M0,50 l80,0 M50,0 l0,80" fill="none" stroke="black" stroke-width="1"/>
<path d="M0,60 l80,0 M60,0 l0,80" fill="none" stroke="black" stroke-width="1"/>
<path d="M0,70 l80,0 M70,0 l0,80" fill="none" stroke="black" stroke-width="1"/>
<path d="M0,80 l80,0 M80,0 l0,80" fill="none" stroke="black" stroke-width="1"/>
<circle cx="35" cy="25" fill="black" r="3"/>
<circle cx="35" cy="35" fill="black" r="3"/>
<circle cx="35" cy="45" fill="black" r="3"/>
<circle cx="45" cy="35" fill="black" r="3"/>
<circle cx="45" cy="45" fill="white" r="3"/>
<text font-size="5px" lengthAdjust="spacing" x="3" y="-2">
A
</text>
<text font-size="5px" lengthAdjust="spacing" x="-5" y="6">
1
</text>
<text font-size="5px" lengthAdjust="spacing" x="13" y="-2">
B
</text>
<text font-size="5px" lengthAdjust="spacing" x="-5" y="16">
2
</text>
<text font-size="5px" lengthAdjust="spacing" x="23" y="-2">
C
</text>
<text font-size="5px" lengthAdjust="spacing" x="-5" y="26">
3
</text>
<text font-size="5px" lengthAdjust="spacing" x="33" y="-2">
D
</text>
<text font-size="5px" lengthAdjust="spacing" x="-5" y="36">
4
</text>
<text font-size="5px" lengthAdjust="spacing" x="43" y="-2">
E
</text>
<text font-size="5px" lengthAdjust="spacing" x="-5" y="46">
5
</text>
<text font-size="5px" lengthAdjust="spacing" x="53" y="-2">
F
</text>
<text font-size="5px" lengthAdjust="spacing" x="-5" y="56">
6
</text>
<text font-size="5px" lengthAdjust="spacing" x="63" y="-2">
G
</text>
<text font-size="5px" lengthAdjust="spacing" x="-5" y="66">
7
</text>
<text font-size="5px" lengthAdjust="spacing" x="73" y="-2">
H
</text>
<text font-size="5px" lengthAdjust="spacing" x="-5" y="76">
8
</text>
</svg>